<svg version="1.1" xmlns="http://www.w3.org/2000/svg" xmlns:xlink="http://www.w3.org/1999/xlink" x="0px" y="0px" width="200px" height="200px" viewBox="0 0 200 200" style="enable-background:new 0 0 200 200;" xml:space="preserve">
<style type="text/css">
	.st0{fill:#FFFFFF;}
	.st1{fill:#B9BBBD;}
</style>
<g id="Layer_1">
	<g>
		
		<path class="st1" d="M75.36,103.77c2,4.19,3.96,8.11,5.67,12.15c1.78,4.2,4.73,7.33,8.39,9.87c2.64,1.83,5.33,3.59,8,5.39
			c3.68,2.48,7.74,2.34,11.57,0.94c3.75-1.37,7.4-3.22,10.78-5.37c6.9-4.39,13.58-9.13,20.38-13.69c0.87-0.58,1.92-0.9,3.42-1.58
			c0.51,3.79,1.18,6.95,1.3,10.14c0.21,5.08,0.06,10.18,0.05,15.26c0,0.69-0.02,1.39-0.12,2.07c-0.55,3.78-1.16,4.3-5.11,4.67
			c-3.78,0.36-8.1,0.79-10.94,0.78c-1.2,0-3.58,0.02-5.18,0.02c-12.84-0.04-25.68-0.02-38.51-0.02c-3.44,0-6.89,0.17-10.32-0.05
			c-4.17-0.28-8.11-1.17-11.38-4.28c-2.62-2.49-3.28-5.59-3.42-8.76c-0.26-6-0.09-12.03-0.1-18.04c0-2.14,0.92-3.94,2.7-4.96
			c3.31-1.89,6.73-3.58,10.19-5.18C73.36,102.82,74.37,103.38,75.36,103.77z" data-index="1" style="opacity: 1;"></path>
		<path class="st1" d="M94.77,68.12c-6.35,2.45-11.7,6.07-16.97,9.82c-2.07,1.47-4.16,2.92-6.13,4.51c-1.78,1.43-3.41,3.03-5.1,4.56
			c-0.26,0.23-0.47,0.51-0.73,0.74c-2.76,2.51-4.44,2.02-5.13-1.65c-0.46-2.48-0.73-5.02-0.8-7.54c-0.13-4.51-0.09-9.02-0.02-13.53
			c0.07-4.84,2.13-6.94,6.93-7.22c1.38-0.08,2.77-0.08,4.16-0.08c21.62-0.01,43.24-0.01,64.86,0c6.46,0,9.73,3.23,9.81,9.74
			c0.06,4.85,0.03,9.71,0.05,14.56c0.01,3.75-1.63,6.37-5.22,7.68c-1.84,0.67-3.66,1.43-5.52,2.03c-3.25,1.05-4.6,0.61-6.53-2.13
			c-1.26-1.79-2.58-3.57-3.52-5.53c-2.54-5.29-6.56-9.13-11.4-12.24c-0.78-0.5-1.56-0.99-2.31-1.53
			C106.21,66.69,100.76,66.4,94.77,68.12z" data-index="2"></path>
	</g>
</g>
<g id="Layer_2">
</g>
</svg>