<svg version="1.1" id="Layer_1" xmlns="http://www.w3.org/2000/svg" xmlns:xlink="http://www.w3.org/1999/xlink" x="0px" y="0px"
	 width="100%" viewBox="0 0 2000 2000" enable-background="new 0 0 2000 2000" xml:space="preserve">
<path fill="#161D25" opacity="1.000000" stroke="none" 
	d="
M2001.000000,1934.000000 
	C2001.000000,1956.331909 2001.000000,1978.663696 2001.000000,2000.996704 
	C1334.378540,2000.997803 667.757202,2000.997803 1.067885,2000.997803 
	C1.067885,1334.422363 1.067885,667.844788 1.067885,1.133569 
	C667.666626,1.133569 1334.333374,1.133569 2001.000000,1.133569 
	C2001.000000,15.767036 2001.000000,30.432613 2000.697266,45.772736 
	C1999.961914,48.836784 1999.150879,51.226162 1999.150024,53.615807 
	C1999.085083,245.234207 1999.082397,436.852631 1999.077515,628.471069 
	C1999.067993,1002.376953 1999.057495,1376.282837 1999.052856,1750.188721 
	C1999.052124,1809.007202 1999.057251,1867.825806 1999.175415,1926.644165 
	C1999.180298,1929.097290 2000.364990,1931.548096 2001.000000,1934.000000 
M515.812683,956.849304 
	C515.812683,956.849304 516.081909,957.005127 516.264709,957.669006 
	C520.561707,962.219238 524.161377,967.879639 529.292236,971.102234 
	C542.391357,979.329712 558.201111,970.200073 558.349731,954.856323 
	C558.483582,941.028259 558.492432,927.196045 558.310547,913.368896 
	C558.195435,904.620605 552.477417,899.124329 543.729187,899.125549 
	C492.242279,899.132568 440.755310,899.172363 389.268494,899.270264 
	C378.130707,899.291443 374.160919,903.256348 374.162567,914.271179 
	C374.165375,932.599426 374.313232,950.927734 374.435944,969.255798 
	C374.443817,970.432312 374.759247,971.606750 375.058868,973.650208 
	C376.610870,971.818726 377.655029,970.791626 378.461823,969.603394 
	C389.083069,953.961548 402.381317,940.800964 416.833252,928.806152 
	C429.033569,918.679993 442.989777,911.367004 457.615631,905.421753 
	C459.909088,904.489380 463.587830,904.337585 465.505432,905.569397 
	C473.185577,910.502869 481.459167,915.155090 487.592682,921.708740 
	C497.776215,932.589661 506.479736,944.855713 515.812683,956.849304 
M799.012390,954.399048 
	C791.403809,930.818909 775.460327,915.877258 751.326111,910.959595 
	C740.727905,908.800171 729.471375,908.422607 718.640930,909.144043 
	C693.547424,910.815735 673.877625,922.982117 660.853455,944.340515 
	C643.517761,972.769531 642.751831,1003.433044 652.617920,1034.360962 
	C658.625244,1053.192505 670.497437,1068.196411 688.492859,1077.365479 
	C711.321594,1088.997192 735.287170,1090.166138 759.289368,1082.249390 
	C782.169250,1074.702881 795.612305,1058.052734 800.969543,1033.998047 
	C794.232605,1033.998047 787.930481,1034.149902 781.641296,1033.930664 
	C778.718079,1033.828857 777.747742,1035.118042 776.760986,1037.622681 
	C775.127014,1041.769897 773.286377,1045.959229 770.783142,1049.618042 
	C761.491760,1063.198853 747.640808,1067.679077 731.984558,1068.639648 
	C706.158936,1070.224487 683.902405,1056.656860 674.143555,1032.752686 
	C667.144897,1015.609375 666.523376,997.723022 669.315002,979.697205 
	C674.252930,947.812744 695.724060,928.250488 726.674805,926.711243 
	C749.712219,925.565430 770.653931,936.058899 777.181458,959.429871 
	C777.472534,960.471741 778.756165,961.976379 779.615845,962.002502 
	C786.539856,962.213074 793.473083,962.120483 800.984863,962.120483 
	C800.261780,959.256226 799.744141,957.205566 799.012390,954.399048 
M1258.835327,1086.325928 
	C1273.526123,1084.834229 1283.449463,1076.056152 1292.038452,1063.004272 
	C1292.593018,1070.995483 1293.026001,1077.233032 1293.470093,1083.631714 
	C1299.753174,1083.631714 1305.628784,1083.631714 1311.376099,1083.631714 
	C1311.617676,1082.959106 1311.822510,1082.655273 1311.822388,1082.351440 
	C1311.815674,1056.193726 1312.292358,1030.022461 1311.587646,1003.883118 
	C1311.152832,987.755859 1304.544434,973.934692 1289.978638,965.542114 
	C1270.604248,954.378845 1235.046143,955.886475 1217.135254,976.606140 
	C1211.463013,983.167847 1207.940063,990.641052 1207.619873,1000.003723 
	C1213.364868,1000.003723 1218.674805,999.786377 1223.956055,1000.081360 
	C1227.374512,1000.272339 1229.016113,999.231201 1229.857910,995.807739 
	C1231.591064,988.758911 1236.203125,983.873962 1242.586914,980.600281 
	C1252.113403,975.715027 1262.093994,975.103577 1272.185181,978.154480 
	C1284.847778,981.982788 1293.440430,997.338867 1290.130615,1010.140198 
	C1280.427734,1010.140198 1270.614136,1009.967224 1260.809204,1010.186096 
	C1249.807983,1010.431702 1238.882935,1011.251221 1228.435669,1015.343628 
	C1213.680664,1021.123413 1205.188232,1032.560059 1204.927368,1047.483887 
	C1204.633911,1064.276001 1212.534424,1076.686157 1227.517944,1082.908569 
	C1237.318359,1086.978638 1247.553223,1087.464111 1258.835327,1086.325928 
M1627.708252,983.775574 
	C1616.283569,967.110779 1600.365967,958.955444 1580.263916,958.863831 
	C1556.677368,958.756348 1538.203979,968.065308 1526.698730,989.109070 
	C1518.454834,1004.187988 1517.238037,1020.580505 1520.169067,1037.207520 
	C1524.075928,1059.370239 1535.940430,1076.072144 1557.594360,1083.248779 
	C1579.904541,1090.643311 1601.450073,1088.578979 1619.394287,1071.284302 
	C1626.021973,1064.896606 1630.876587,1057.291870 1633.140259,1047.472778 
	C1626.744873,1047.472778 1620.942139,1047.304932 1615.163940,1047.608032 
	C1613.944458,1047.672119 1612.424438,1049.237061 1611.704346,1050.490234 
	C1602.406738,1066.675171 1585.276855,1073.277222 1567.134277,1067.535645 
	C1550.529663,1062.280762 1537.710938,1043.469849 1540.494873,1027.445068 
	C1572.390625,1027.445068 1604.435547,1027.445068 1636.543823,1027.445068 
	C1637.963257,1011.713013 1636.241211,997.416260 1627.708252,983.775574 
M1100.306519,1021.021606 
	C1087.572754,985.810852 1074.855835,950.594055 1062.049927,915.409546 
	C1061.488525,913.867004 1060.178223,911.479431 1059.110474,911.420776 
	C1052.414917,911.052979 1045.689209,911.234802 1038.409790,911.234802 
	C1039.203003,913.697266 1039.640137,915.275452 1040.213379,916.802673 
	C1058.930786,966.658386 1077.649902,1016.513428 1096.404663,1066.354980 
	C1098.567993,1072.104126 1099.423584,1080.044434 1103.633179,1082.858276 
	C1108.057495,1085.815430 1115.804565,1083.590454 1122.063110,1084.089355 
	C1126.133057,1084.413574 1127.782471,1082.859375 1129.177002,1079.118286 
	C1149.345337,1025.008423 1169.695801,970.966370 1189.992920,916.904419 
	C1190.618896,915.237122 1191.140259,913.530396 1191.946533,911.143250 
	C1186.166260,911.143250 1181.019531,911.476868 1175.938477,911.042664 
	C1171.503784,910.663757 1169.596558,912.306152 1168.105957,916.434875 
	C1151.547974,962.295898 1134.785889,1008.083374 1118.068970,1053.886963 
	C1117.310791,1055.964233 1116.457153,1058.006714 1115.648071,1060.065430 
	C1115.256958,1060.055664 1114.865845,1060.045898 1114.474609,1060.036133 
	C1109.858887,1047.268921 1105.243164,1034.501709 1100.306519,1021.021606 
M1405.877319,971.575195 
	C1405.877319,968.473572 1405.877319,965.371887 1405.877319,962.129578 
	C1398.593872,962.129578 1392.005127,962.129578 1385.440308,962.129578 
	C1385.268799,962.928833 1385.073975,963.411926 1385.074219,963.894897 
	C1385.086914,989.048401 1384.886230,1014.205383 1385.261230,1039.353760 
	C1385.403198,1048.870361 1387.488159,1058.205322 1392.495361,1066.590454 
	C1407.907837,1092.400757 1450.247681,1094.120483 1469.598389,1069.723267 
	C1470.962646,1068.003418 1472.293335,1066.257202 1474.492920,1063.424072 
	C1475.142700,1071.138428 1475.665405,1077.342773 1476.200806,1083.699341 
	C1482.493408,1083.699341 1488.399048,1083.699341 1494.589966,1083.699341 
	C1494.589966,1043.026978 1494.589966,1002.659241 1494.589966,962.111816 
	C1487.667969,962.111816 1481.067627,962.111816 1474.046997,962.111816 
	C1474.046997,964.229858 1474.046753,966.041138 1474.046875,967.852478 
	C1474.048584,986.010132 1474.120483,1004.168213 1474.004761,1022.325134 
	C1473.974121,1027.138794 1473.775513,1032.020142 1472.950073,1036.747437 
	C1470.130249,1052.895996 1461.626221,1064.656860 1445.032104,1068.222656 
	C1428.025391,1071.877197 1412.592651,1066.118652 1407.823608,1047.333130 
	C1406.808105,1043.332642 1406.123779,1039.134399 1406.081787,1035.019165 
	C1405.869141,1014.198547 1405.918945,993.375305 1405.877319,971.575195 
M416.149597,1002.385376 
	C407.224152,996.676514 401.134003,984.978516 386.805695,991.583862 
	C380.112488,994.669434 372.309021,995.306274 368.045349,1002.283508 
	C364.101196,1008.737854 361.208344,1015.684875 362.390503,1023.483154 
	C363.181244,1028.699463 364.470612,1033.849487 365.725037,1038.983154 
	C366.702515,1042.983521 367.660767,1047.036377 369.180634,1050.845215 
	C371.493591,1056.641479 373.959961,1062.426636 376.973846,1067.877808 
	C379.479156,1072.408936 382.263306,1077.108154 386.008301,1080.554688 
	C391.383362,1085.501343 396.125000,1091.581909 403.845367,1093.551270 
	C405.452484,1093.961304 406.623962,1095.884155 408.140381,1096.893066 
	C410.064606,1098.173340 412.029205,1099.510620 414.165466,1100.331177 
	C419.111450,1102.230957 424.075256,1104.238770 429.208771,1105.457397 
	C435.787750,1107.019409 442.517151,1108.639893 449.222992,1108.838257 
	C465.538177,1109.320068 481.895325,1109.476929 498.201843,1108.865967 
	C516.216187,1108.190918 534.398132,1111.602417 552.296387,1106.293579 
	C556.238525,1105.124268 558.313232,1104.229614 561.049316,1100.559204 
	C566.994812,1092.583374 566.263245,1083.848145 566.631714,1075.331177 
	C567.017273,1066.419189 565.499451,1057.435791 565.031860,1048.472412 
	C564.583618,1039.882080 556.202637,1034.011108 548.274902,1037.353394 
	C544.256958,1039.047241 540.159058,1041.230591 537.007874,1044.169189 
	C528.755432,1051.864380 520.117859,1058.913086 511.068939,1065.704590 
	C504.324127,1070.766846 497.379242,1073.615479 489.699432,1075.331177 
	C486.183502,1076.116577 481.875702,1075.952515 478.572418,1074.619507 
	C467.628174,1070.203369 461.821136,1059.862915 454.067139,1051.806641 
	C449.380219,1046.937134 445.157837,1041.584961 441.048828,1036.203613 
	C436.012054,1029.607178 429.633270,1023.344238 426.989410,1015.827393 
	C424.815216,1009.646118 421.544800,1006.050354 416.149597,1002.385376 
M854.166443,932.149414 
	C849.547058,932.149414 844.927673,932.149414 839.936584,932.149414 
	C838.908752,942.242920 837.936462,951.791504 836.901184,961.958313 
	C829.674194,961.958313 822.958496,961.958313 816.136414,961.958313 
	C816.136414,967.944824 816.136414,973.237549 816.136414,979.234375 
	C823.054504,979.234375 829.780518,979.234375 837.053223,979.234375 
	C837.053223,981.900391 837.051819,983.865112 837.053406,985.829773 
	C837.070068,1006.993225 836.813965,1028.161987 837.215576,1049.318115 
	C837.427185,1060.459595 839.148132,1071.348145 850.036804,1078.028931 
	C863.173706,1086.089111 877.502319,1083.678101 891.624817,1083.882690 
	C891.624817,1077.654541 891.624817,1072.221313 891.624817,1066.000977 
	C885.709412,1066.000977 880.083862,1066.218018 874.480896,1065.955200 
	C863.052429,1065.419312 858.384338,1060.501465 857.987732,1049.014771 
	C857.947510,1047.849243 857.912170,1046.682495 857.911804,1045.516357 
	C857.905884,1025.186035 857.899353,1004.855652 857.916443,984.525269 
	C857.917786,982.912415 858.091248,981.299622 858.214905,979.164673 
	C870.271362,979.164673 881.883545,979.164673 893.640503,979.164673 
	C893.640503,973.183899 893.640503,967.757874 893.640503,961.748779 
	C881.760254,961.748779 870.151245,961.748779 857.901367,961.748779 
	C857.901367,953.050964 857.935730,944.923462 857.876892,936.796692 
	C857.862427,934.791565 858.634033,932.127380 854.166443,932.149414 
M1020.568604,978.500244 
	C1020.568054,956.181335 1020.623230,933.861938 1020.455994,911.544312 
	C1020.443359,909.854675 1018.958435,906.796814 1017.975342,906.720276 
	C1012.100586,906.262695 1006.172180,906.493652 1000.060059,906.493652 
	C1000.060059,966.040833 1000.060059,1024.791016 1000.060059,1083.669434 
	C1006.875000,1083.669434 1013.438782,1083.669434 1020.568176,1083.669434 
	C1020.568176,1048.722046 1020.568176,1014.111206 1020.568604,978.500244 
M1355.948120,906.478943 
	C1350.054810,906.478943 1344.161621,906.478943 1338.353882,906.478943 
	C1338.353882,966.159363 1338.353882,1024.864990 1338.353882,1083.621582 
	C1345.269653,1083.621582 1351.821777,1083.621582 1358.849365,1083.621582 
	C1358.849365,1081.444214 1358.849487,1079.645264 1358.849487,1077.846313 
	C1358.849609,1061.025635 1358.849609,1044.204956 1358.849609,1027.384277 
	C1358.849487,989.079773 1358.879395,950.775269 1358.763428,912.471069 
	C1358.757446,910.499756 1357.503052,908.532227 1355.948120,906.478943 
M936.008484,1043.500000 
	C936.341125,1032.525024 935.906555,1021.458984 937.194885,1010.597290 
	C938.920227,996.051758 947.112305,986.059387 961.807068,982.580261 
	C966.944153,981.364014 972.353943,981.340759 977.588684,980.468994 
	C979.044250,980.226562 981.445251,978.959473 981.495056,978.056702 
	C981.839294,971.815247 981.676392,965.545837 981.676392,957.805603 
	C973.705322,959.522095 966.619141,960.464050 959.926331,962.624451 
	C949.583679,965.963196 942.300110,973.445618 935.754700,982.407166 
	C935.129456,975.608276 934.504150,968.809326 933.901428,962.255737 
	C927.321655,962.255737 921.414429,962.255737 915.494019,962.255737 
	C915.494019,1002.956482 915.494019,1043.203857 915.494019,1083.683594 
	C922.390442,1083.683594 928.947815,1083.683594 936.008240,1083.683594 
	C936.008240,1070.412720 936.008240,1057.456421 936.008484,1043.500000 
z"/>
<path fill="#05070C" opacity="1.000000" stroke="none" 
	d="
M2001.000000,1933.531372 
	C2000.364990,1931.548096 1999.180298,1929.097290 1999.175415,1926.644165 
	C1999.057251,1867.825806 1999.052124,1809.007202 1999.052856,1750.188721 
	C1999.057495,1376.282837 1999.067993,1002.376953 1999.077515,628.471069 
	C1999.082397,436.852631 1999.085083,245.234207 1999.150024,53.615807 
	C1999.150879,51.226162 1999.961914,48.836784 2000.697266,46.223640 
	C2001.000000,675.020935 2001.000000,1304.041870 2001.000000,1933.531372 
z"/>
<path fill="#8C8C8C" opacity="1.000000" stroke="none" 
	d="
M799.119446,954.776978 
	C799.744141,957.205566 800.261780,959.256226 800.984863,962.120483 
	C793.473083,962.120483 786.539856,962.213074 779.615845,962.002502 
	C778.756165,961.976379 777.472534,960.471741 777.181458,959.429871 
	C770.653931,936.058899 749.712219,925.565430 726.674805,926.711243 
	C695.724060,928.250488 674.252930,947.812744 669.315002,979.697205 
	C666.523376,997.723022 667.144897,1015.609375 674.143555,1032.752686 
	C683.902405,1056.656860 706.158936,1070.224487 731.984558,1068.639648 
	C747.640808,1067.679077 761.491760,1063.198853 770.783142,1049.618042 
	C773.286377,1045.959229 775.127014,1041.769897 776.760986,1037.622681 
	C777.747742,1035.118042 778.718079,1033.828857 781.641296,1033.930664 
	C787.930481,1034.149902 794.232605,1033.998047 800.969543,1033.998047 
	C795.612305,1058.052734 782.169250,1074.702881 759.289368,1082.249390 
	C735.287170,1090.166138 711.321594,1088.997192 688.492859,1077.365479 
	C670.497437,1068.196411 658.625244,1053.192505 652.617920,1034.360962 
	C642.751831,1003.433044 643.517761,972.769531 660.853455,944.340515 
	C673.877625,922.982117 693.547424,910.815735 718.640930,909.144043 
	C729.471375,908.422607 740.727905,908.800171 751.326111,910.959595 
	C775.460327,915.877258 791.403809,930.818909 799.119446,954.776978 
z"/>
<path fill="#8C8C8C" opacity="1.000000" stroke="none" 
	d="
M1258.394409,1086.413818 
	C1247.553223,1087.464111 1237.318359,1086.978638 1227.517944,1082.908569 
	C1212.534424,1076.686157 1204.633911,1064.276001 1204.927368,1047.483887 
	C1205.188232,1032.560059 1213.680664,1021.123413 1228.435669,1015.343628 
	C1238.882935,1011.251221 1249.807983,1010.431702 1260.809204,1010.186096 
	C1270.614136,1009.967224 1280.427734,1010.140198 1290.130615,1010.140198 
	C1293.440430,997.338867 1284.847778,981.982788 1272.185181,978.154480 
	C1262.093994,975.103577 1252.113403,975.715027 1242.586914,980.600281 
	C1236.203125,983.873962 1231.591064,988.758911 1229.857910,995.807739 
	C1229.016113,999.231201 1227.374512,1000.272339 1223.956055,1000.081360 
	C1218.674805,999.786377 1213.364868,1000.003723 1207.619873,1000.003723 
	C1207.940063,990.641052 1211.463013,983.167847 1217.135254,976.606140 
	C1235.046143,955.886475 1270.604248,954.378845 1289.978638,965.542114 
	C1304.544434,973.934692 1311.152832,987.755859 1311.587646,1003.883118 
	C1312.292358,1030.022461 1311.815674,1056.193726 1311.822388,1082.351440 
	C1311.822510,1082.655273 1311.617676,1082.959106 1311.376099,1083.631714 
	C1305.628784,1083.631714 1299.753174,1083.631714 1293.470093,1083.631714 
	C1293.026001,1077.233032 1292.593018,1070.995483 1292.038452,1063.004272 
	C1283.449463,1076.056152 1273.526123,1084.834229 1258.394409,1086.413818 
M1227.938232,1040.856445 
	C1223.993896,1053.814209 1229.478516,1064.272949 1242.395386,1067.945923 
	C1245.549072,1068.842651 1248.933228,1069.253662 1252.220459,1069.304810 
	C1274.809692,1069.656738 1294.269409,1047.925781 1290.190674,1025.436768 
	C1274.849487,1026.276001 1259.278931,1026.687378 1243.811523,1028.172607 
	C1236.786011,1028.847168 1231.389526,1033.482910 1227.938232,1040.856445 
z"/>
<path fill="#8A8A8B" opacity="1.000000" stroke="none" 
	d="
M1627.887329,984.088989 
	C1636.241211,997.416260 1637.963257,1011.713013 1636.543823,1027.445068 
	C1604.435547,1027.445068 1572.390625,1027.445068 1540.494873,1027.445068 
	C1537.710938,1043.469849 1550.529663,1062.280762 1567.134277,1067.535645 
	C1585.276855,1073.277222 1602.406738,1066.675171 1611.704346,1050.490234 
	C1612.424438,1049.237061 1613.944458,1047.672119 1615.163940,1047.608032 
	C1620.942139,1047.304932 1626.744873,1047.472778 1633.140259,1047.472778 
	C1630.876587,1057.291870 1626.021973,1064.896606 1619.394287,1071.284302 
	C1601.450073,1088.578979 1579.904541,1090.643311 1557.594360,1083.248779 
	C1535.940430,1076.072144 1524.075928,1059.370239 1520.169067,1037.207520 
	C1517.238037,1020.580505 1518.454834,1004.187988 1526.698730,989.109070 
	C1538.203979,968.065308 1556.677368,958.756348 1580.263916,958.863831 
	C1600.365967,958.955444 1616.283569,967.110779 1627.887329,984.088989 
M1582.011353,976.476135 
	C1559.047852,974.732971 1539.634644,991.736328 1540.605957,1011.051880 
	C1565.605347,1011.051880 1590.613770,1011.051880 1615.570435,1011.051880 
	C1617.765015,993.933899 1602.839844,978.399170 1582.011353,976.476135 
z"/>
<path fill="#8C8C8C" opacity="1.000000" stroke="none" 
	d="
M1100.466919,1021.378113 
	C1105.243164,1034.501709 1109.858887,1047.268921 1114.474609,1060.036133 
	C1114.865845,1060.045898 1115.256958,1060.055664 1115.648071,1060.065430 
	C1116.457153,1058.006714 1117.310791,1055.964233 1118.068970,1053.886963 
	C1134.785889,1008.083374 1151.547974,962.295898 1168.105957,916.434875 
	C1169.596558,912.306152 1171.503784,910.663757 1175.938477,911.042664 
	C1181.019531,911.476868 1186.166260,911.143250 1191.946533,911.143250 
	C1191.140259,913.530396 1190.618896,915.237122 1189.992920,916.904419 
	C1169.695801,970.966370 1149.345337,1025.008423 1129.177002,1079.118286 
	C1127.782471,1082.859375 1126.133057,1084.413574 1122.063110,1084.089355 
	C1115.804565,1083.590454 1108.057495,1085.815430 1103.633179,1082.858276 
	C1099.423584,1080.044434 1098.567993,1072.104126 1096.404663,1066.354980 
	C1077.649902,1016.513428 1058.930786,966.658386 1040.213379,916.802673 
	C1039.640137,915.275452 1039.203003,913.697266 1038.409790,911.234802 
	C1045.689209,911.234802 1052.414917,911.052979 1059.110474,911.420776 
	C1060.178223,911.479431 1061.488525,913.867004 1062.049927,915.409546 
	C1074.855835,950.594055 1087.572754,985.810852 1100.466919,1021.378113 
z"/>
<path fill="#8C8C8C" opacity="1.000000" stroke="none" 
	d="
M1405.876953,972.064087 
	C1405.918945,993.375305 1405.869141,1014.198547 1406.081787,1035.019165 
	C1406.123779,1039.134399 1406.808105,1043.332642 1407.823608,1047.333130 
	C1412.592651,1066.118652 1428.025391,1071.877197 1445.032104,1068.222656 
	C1461.626221,1064.656860 1470.130249,1052.895996 1472.950073,1036.747437 
	C1473.775513,1032.020142 1473.974121,1027.138794 1474.004761,1022.325134 
	C1474.120483,1004.168213 1474.048584,986.010132 1474.046875,967.852478 
	C1474.046753,966.041138 1474.046997,964.229858 1474.046997,962.111816 
	C1481.067627,962.111816 1487.667969,962.111816 1494.589966,962.111816 
	C1494.589966,1002.659241 1494.589966,1043.026978 1494.589966,1083.699341 
	C1488.399048,1083.699341 1482.493408,1083.699341 1476.200806,1083.699341 
	C1475.665405,1077.342773 1475.142700,1071.138428 1474.492920,1063.424072 
	C1472.293335,1066.257202 1470.962646,1068.003418 1469.598389,1069.723267 
	C1450.247681,1094.120483 1407.907837,1092.400757 1392.495361,1066.590454 
	C1387.488159,1058.205322 1385.403198,1048.870361 1385.261230,1039.353760 
	C1384.886230,1014.205383 1385.086914,989.048401 1385.074219,963.894897 
	C1385.073975,963.411926 1385.268799,962.928833 1385.440308,962.129578 
	C1392.005127,962.129578 1398.593872,962.129578 1405.877319,962.129578 
	C1405.877319,965.371887 1405.877319,968.473572 1405.876953,972.064087 
z"/>
<path fill="#13171C" opacity="1.000000" stroke="none" 
	d="
M416.438660,1002.596558 
	C421.544800,1006.050354 424.815216,1009.646118 426.989410,1015.827393 
	C429.633270,1023.344238 436.012054,1029.607178 441.048828,1036.203613 
	C445.157837,1041.584961 449.380219,1046.937134 454.067139,1051.806641 
	C461.821136,1059.862915 467.628174,1070.203369 478.572418,1074.619507 
	C481.875702,1075.952515 486.183502,1076.116577 489.699432,1075.331177 
	C497.379242,1073.615479 504.324127,1070.766846 511.068939,1065.704590 
	C520.117859,1058.913086 528.755432,1051.864380 537.007874,1044.169189 
	C540.159058,1041.230591 544.256958,1039.047241 548.274902,1037.353394 
	C556.202637,1034.011108 564.583618,1039.882080 565.031860,1048.472412 
	C565.499451,1057.435791 567.017273,1066.419189 566.631714,1075.331177 
	C566.263245,1083.848145 566.994812,1092.583374 561.049316,1100.559204 
	C558.313232,1104.229614 556.238525,1105.124268 552.296387,1106.293579 
	C534.398132,1111.602417 516.216187,1108.190918 498.201843,1108.865967 
	C481.895325,1109.476929 465.538177,1109.320068 449.222992,1108.838257 
	C442.517151,1108.639893 435.787750,1107.019409 429.208771,1105.457397 
	C424.075256,1104.238770 419.111450,1102.230957 414.165466,1100.331177 
	C412.029205,1099.510620 410.064606,1098.173340 408.140381,1096.893066 
	C406.623962,1095.884155 405.452484,1093.961304 403.845367,1093.551270 
	C396.125000,1091.581909 391.383362,1085.501343 386.008301,1080.554688 
	C382.263306,1077.108154 379.479156,1072.408936 376.973846,1067.877808 
	C373.959961,1062.426636 371.493591,1056.641479 369.180634,1050.845215 
	C367.660767,1047.036377 366.702515,1042.983521 365.725037,1038.983154 
	C364.470612,1033.849487 363.181244,1028.699463 362.390503,1023.483154 
	C361.208344,1015.684875 364.101196,1008.737854 368.045349,1002.283508 
	C372.309021,995.306274 380.112488,994.669434 386.805695,991.583862 
	C401.134003,984.978516 407.224152,996.676514 416.438660,1002.596558 
M384.365936,1062.016724 
	C384.766663,1062.569336 385.167419,1063.122070 385.720184,1064.327759 
	C389.143402,1068.120728 392.518372,1071.958618 395.999023,1075.698120 
	C405.869873,1086.303467 417.244995,1094.662354 431.835114,1097.131104 
	C440.792755,1098.647095 449.932617,1099.681396 459.006195,1099.806274 
	C486.661957,1100.187012 514.325317,1100.071045 541.985596,1100.047241 
	C555.079956,1100.035889 558.425903,1096.615723 558.453308,1083.437378 
	C558.481018,1070.107422 558.383789,1056.777222 558.309692,1043.447266 
	C558.303589,1042.341675 558.055969,1041.237427 557.807251,1039.208008 
	C555.835938,1040.445679 554.265076,1041.171265 553.011475,1042.261597 
	C545.266174,1048.997803 538.105957,1056.540771 529.778809,1062.443604 
	C515.934143,1072.257935 501.386383,1081.085571 487.035156,1090.171387 
	C485.727142,1090.999634 483.047577,1091.518188 482.103973,1090.778564 
	C472.336151,1083.122314 461.378876,1076.373291 453.503815,1067.048218 
	C439.915436,1050.958130 428.349823,1033.166992 415.801422,1016.188660 
	C408.878082,1006.821228 401.960083,997.501282 388.052551,998.853821 
	C381.034271,999.536377 374.963989,1004.455017 373.853180,1011.530518 
	C371.039062,1029.455566 374.946625,1045.951294 384.365936,1062.016724 
z"/>
<path fill="#8C8C8C" opacity="1.000000" stroke="none" 
	d="
M854.628357,932.158264 
	C858.634033,932.127380 857.862427,934.791565 857.876892,936.796692 
	C857.935730,944.923462 857.901367,953.050964 857.901367,961.748779 
	C870.151245,961.748779 881.760254,961.748779 893.640503,961.748779 
	C893.640503,967.757874 893.640503,973.183899 893.640503,979.164673 
	C881.883545,979.164673 870.271362,979.164673 858.214905,979.164673 
	C858.091248,981.299622 857.917786,982.912415 857.916443,984.525269 
	C857.899353,1004.855652 857.905884,1025.186035 857.911804,1045.516357 
	C857.912170,1046.682495 857.947510,1047.849243 857.987732,1049.014771 
	C858.384338,1060.501465 863.052429,1065.419312 874.480896,1065.955200 
	C880.083862,1066.218018 885.709412,1066.000977 891.624817,1066.000977 
	C891.624817,1072.221313 891.624817,1077.654541 891.624817,1083.882690 
	C877.502319,1083.678101 863.173706,1086.089111 850.036804,1078.028931 
	C839.148132,1071.348145 837.427185,1060.459595 837.215576,1049.318115 
	C836.813965,1028.161987 837.070068,1006.993225 837.053406,985.829773 
	C837.051819,983.865112 837.053223,981.900391 837.053223,979.234375 
	C829.780518,979.234375 823.054504,979.234375 816.136414,979.234375 
	C816.136414,973.237549 816.136414,967.944824 816.136414,961.958313 
	C822.958496,961.958313 829.674194,961.958313 836.901184,961.958313 
	C837.936462,951.791504 838.908752,942.242920 839.936584,932.149414 
	C844.927673,932.149414 849.547058,932.149414 854.628357,932.158264 
z"/>
<path fill="#8A8A8B" opacity="1.000000" stroke="none" 
	d="
M1020.568359,979.000244 
	C1020.568176,1014.111206 1020.568176,1048.722046 1020.568176,1083.669434 
	C1013.438782,1083.669434 1006.875000,1083.669434 1000.060059,1083.669434 
	C1000.060059,1024.791016 1000.060059,966.040833 1000.060059,906.493652 
	C1006.172180,906.493652 1012.100586,906.262695 1017.975342,906.720276 
	C1018.958435,906.796814 1020.443359,909.854675 1020.455994,911.544312 
	C1020.623230,933.861938 1020.568054,956.181335 1020.568359,979.000244 
z"/>
<path fill="#8C8C8C" opacity="1.000000" stroke="none" 
	d="
M1356.388916,906.520935 
	C1357.503052,908.532227 1358.757446,910.499756 1358.763428,912.471069 
	C1358.879395,950.775269 1358.849487,989.079773 1358.849609,1027.384277 
	C1358.849609,1044.204956 1358.849609,1061.025635 1358.849487,1077.846313 
	C1358.849487,1079.645264 1358.849365,1081.444214 1358.849365,1083.621582 
	C1351.821777,1083.621582 1345.269653,1083.621582 1338.353882,1083.621582 
	C1338.353882,1024.864990 1338.353882,966.159363 1338.353882,906.478943 
	C1344.161621,906.478943 1350.054810,906.478943 1356.388916,906.520935 
z"/>
<path fill="#A0A19F" opacity="1.000000" stroke="none" 
	d="
M515.806641,956.538391 
	C506.479736,944.855713 497.776215,932.589661 487.592682,921.708740 
	C481.459167,915.155090 473.185577,910.502869 465.505432,905.569397 
	C463.587830,904.337585 459.909088,904.489380 457.615631,905.421753 
	C442.989777,911.367004 429.033569,918.679993 416.833252,928.806152 
	C402.381317,940.800964 389.083069,953.961548 378.461823,969.603394 
	C377.655029,970.791626 376.610870,971.818726 375.058868,973.650208 
	C374.759247,971.606750 374.443817,970.432312 374.435944,969.255798 
	C374.313232,950.927734 374.165375,932.599426 374.162567,914.271179 
	C374.160919,903.256348 378.130707,899.291443 389.268494,899.270264 
	C440.755310,899.172363 492.242279,899.132568 543.729187,899.125549 
	C552.477417,899.124329 558.195435,904.620605 558.310547,913.368896 
	C558.492432,927.196045 558.483582,941.028259 558.349731,954.856323 
	C558.201111,970.200073 542.391357,979.329712 529.292236,971.102234 
	C524.161377,967.879639 520.561707,962.219238 516.580872,957.349609 
	C522.161682,956.409973 525.303162,960.267944 529.253418,962.615173 
	C532.422363,964.497986 536.116028,966.214844 539.705688,966.527832 
	C547.976379,967.248901 552.816101,962.921814 552.992615,954.828735 
	C553.260986,942.527161 552.783325,930.209351 553.051453,917.907715 
	C553.318298,905.663147 544.285400,903.501038 534.741943,904.686768 
	C530.185974,905.252747 525.549927,905.550781 520.964417,905.429749 
	C509.670990,905.131592 498.387421,904.471619 487.095245,904.096802 
	C485.672821,904.049683 484.222595,904.839905 481.517090,905.597168 
	C488.594788,910.907776 495.863068,909.260986 502.387909,911.293579 
	C500.482819,911.835938 498.577698,912.378357 495.741211,913.185852 
	C497.539001,915.430786 498.920013,916.961487 500.077881,918.645569 
	C501.933380,921.344238 504.369415,923.931885 505.250641,926.948914 
	C506.808624,932.282959 509.812347,935.882080 514.370667,938.876465 
	C515.922241,939.895691 516.797668,942.902100 516.853699,945.030151 
	C516.954468,948.854370 516.202393,952.701050 515.806641,956.538391 
M404.556396,908.990234 
	C401.434723,908.676147 397.990265,909.105347 395.249237,907.914917 
	C385.252136,903.573120 379.872620,911.275635 379.475433,919.597961 
	C379.080750,927.868164 379.667877,936.200195 380.151886,944.486023 
	C380.264923,946.421204 381.315887,949.460449 382.621216,949.885498 
	C384.410553,950.468201 386.934509,949.233582 388.982361,948.387512 
	C389.923004,947.998779 390.422638,946.626709 391.220001,945.794189 
	C398.513550,938.179932 405.828339,930.585999 413.137604,922.986694 
	C415.726440,920.295044 418.608276,917.821106 420.814850,914.846130 
	C422.588867,912.454407 421.685638,910.343689 418.410156,910.032837 
	C414.117462,909.625427 409.813934,909.332520 404.556396,908.990234 
z"/>
<path fill="#8C8C8C" opacity="1.000000" stroke="none" 
	d="
M936.008362,1044.000000 
	C936.008240,1057.456421 936.008240,1070.412720 936.008240,1083.683594 
	C928.947815,1083.683594 922.390442,1083.683594 915.494019,1083.683594 
	C915.494019,1043.203857 915.494019,1002.956482 915.494019,962.255737 
	C921.414429,962.255737 927.321655,962.255737 933.901428,962.255737 
	C934.504150,968.809326 935.129456,975.608276 935.754700,982.407166 
	C942.300110,973.445618 949.583679,965.963196 959.926331,962.624451 
	C966.619141,960.464050 973.705322,959.522095 981.676392,957.805603 
	C981.676392,965.545837 981.839294,971.815247 981.495056,978.056702 
	C981.445251,978.959473 979.044250,980.226562 977.588684,980.468994 
	C972.353943,981.340759 966.944153,981.364014 961.807068,982.580261 
	C947.112305,986.059387 938.920227,996.051758 937.194885,1010.597290 
	C935.906555,1021.458984 936.341125,1032.525024 936.008362,1044.000000 
z"/>
<path fill="#979795" opacity="1.000000" stroke="none" 
	d="
M515.809692,956.693848 
	C516.202393,952.701050 516.954468,948.854370 516.853699,945.030151 
	C516.797668,942.902100 515.922241,939.895691 514.370667,938.876465 
	C509.812347,935.882080 506.808624,932.282959 505.250641,926.948914 
	C504.369415,923.931885 501.933380,921.344238 500.077881,918.645569 
	C498.920013,916.961487 497.539001,915.430786 495.741211,913.185852 
	C498.577698,912.378357 500.482819,911.835938 502.387909,911.293579 
	C495.863068,909.260986 488.594788,910.907776 481.517090,905.597168 
	C484.222595,904.839905 485.672821,904.049683 487.095245,904.096802 
	C498.387421,904.471619 509.670990,905.131592 520.964417,905.429749 
	C525.549927,905.550781 530.185974,905.252747 534.741943,904.686768 
	C544.285400,903.501038 553.318298,905.663147 553.051453,917.907715 
	C552.783325,930.209351 553.260986,942.527161 552.992615,954.828735 
	C552.816101,962.921814 547.976379,967.248901 539.705688,966.527832 
	C536.116028,966.214844 532.422363,964.497986 529.253418,962.615173 
	C525.303162,960.267944 522.161682,956.409973 516.489502,957.017700 
	C516.081909,957.005127 515.812683,956.849304 515.809692,956.693848 
z"/>
<path fill="#181F27" opacity="1.000000" stroke="none" 
	d="
M1228.063721,1040.477905 
	C1231.389526,1033.482910 1236.786011,1028.847168 1243.811523,1028.172607 
	C1259.278931,1026.687378 1274.849487,1026.276001 1290.190674,1025.436768 
	C1294.269409,1047.925781 1274.809692,1069.656738 1252.220459,1069.304810 
	C1248.933228,1069.253662 1245.549072,1068.842651 1242.395386,1067.945923 
	C1229.478516,1064.272949 1223.993896,1053.814209 1228.063721,1040.477905 
z"/>
<path fill="#181F27" opacity="1.000000" stroke="none" 
	d="
M1582.439697,976.524231 
	C1602.839844,978.399170 1617.765015,993.933899 1615.570435,1011.051880 
	C1590.613770,1011.051880 1565.605347,1011.051880 1540.605957,1011.051880 
	C1539.634644,991.736328 1559.047852,974.732971 1582.439697,976.524231 
z"/>
<path fill="#A0A19F" opacity="1.000000" stroke="none" 
	d="
M384.231812,1061.340698 
	C374.946625,1045.951294 371.039062,1029.455566 373.853180,1011.530518 
	C374.963989,1004.455017 381.034271,999.536377 388.052551,998.853821 
	C401.960083,997.501282 408.878082,1006.821228 415.801422,1016.188660 
	C428.349823,1033.166992 439.915436,1050.958130 453.503815,1067.048218 
	C461.378876,1076.373291 472.336151,1083.122314 482.103973,1090.778564 
	C483.047577,1091.518188 485.727142,1090.999634 487.035156,1090.171387 
	C501.386383,1081.085571 515.934143,1072.257935 529.778809,1062.443604 
	C538.105957,1056.540771 545.266174,1048.997803 553.011475,1042.261597 
	C554.265076,1041.171265 555.835938,1040.445679 557.807251,1039.208008 
	C558.055969,1041.237427 558.303589,1042.341675 558.309692,1043.447266 
	C558.383789,1056.777222 558.481018,1070.107422 558.453308,1083.437378 
	C558.425903,1096.615723 555.079956,1100.035889 541.985596,1100.047241 
	C514.325317,1100.071045 486.661957,1100.187012 459.006195,1099.806274 
	C449.932617,1099.681396 440.792755,1098.647095 431.835114,1097.131104 
	C417.244995,1094.662354 405.869873,1086.303467 395.999023,1075.698120 
	C392.518372,1071.958618 389.143402,1068.120728 385.721680,1063.730591 
	C385.226044,1062.535889 384.728912,1061.938232 384.231812,1061.340698 
M424.136292,1041.397827 
	C421.485291,1038.067993 417.878326,1035.118286 416.373138,1031.332886 
	C412.720398,1022.146362 406.029053,1015.542664 399.209930,1009.018616 
	C395.047546,1005.036438 390.046051,1003.801392 384.588806,1007.124390 
	C383.102722,1008.029297 381.215668,1008.275818 379.932892,1008.689087 
	C379.730652,1011.259644 379.425598,1013.632385 379.381531,1016.010010 
	C379.289307,1020.987854 378.652985,1026.079102 379.441315,1030.928345 
	C382.837158,1051.816650 394.042999,1068.359741 410.774384,1080.515503 
	C418.643585,1086.232666 427.266479,1092.712524 438.490723,1091.151978 
	C440.167603,1090.918701 441.994690,1092.132446 443.787476,1092.299561 
	C450.179749,1092.895630 456.587555,1093.693115 462.988708,1093.686646 
	C466.776703,1093.682739 467.680542,1090.750854 465.176880,1087.830322 
	C464.111481,1086.587646 462.636749,1085.704224 461.405029,1084.594360 
	C456.490570,1080.165894 451.019836,1076.195557 446.823090,1071.164673 
	C438.990143,1061.774536 431.902222,1051.762817 424.136292,1041.397827 
M510.482880,1094.522095 
	C519.892273,1095.059326 529.309265,1095.491211 538.708679,1096.167847 
	C545.912170,1096.686279 552.115479,1092.422119 553.763428,1085.516724 
	C556.185120,1075.368408 554.582214,1065.335571 552.825256,1055.332520 
	C552.238525,1051.992065 550.164429,1051.785645 547.803650,1053.820801 
	C546.553894,1054.898315 545.593628,1056.305542 544.382080,1057.434448 
	C538.836121,1062.602539 533.517944,1068.064941 527.599121,1072.769043 
	C521.511047,1077.607788 514.759399,1081.603271 508.430420,1086.151855 
	C506.230865,1087.732666 504.426819,1089.863647 501.288422,1092.836182 
	C505.037903,1093.614624 507.349579,1094.094482 510.482880,1094.522095 
z"/>
<path fill="#999997" opacity="1.000000" stroke="none" 
	d="
M384.298859,1061.678711 
	C384.728912,1061.938232 385.226044,1062.535889 385.645660,1063.404053 
	C385.167419,1063.122070 384.766663,1062.569336 384.298859,1061.678711 
z"/>
<path fill="#999997" opacity="1.000000" stroke="none" 
	d="
M405.035736,908.990234 
	C409.813934,909.332520 414.117462,909.625427 418.410156,910.032837 
	C421.685638,910.343689 422.588867,912.454407 420.814850,914.846130 
	C418.608276,917.821106 415.726440,920.295044 413.137604,922.986694 
	C405.828339,930.585999 398.513550,938.179932 391.220001,945.794189 
	C390.422638,946.626709 389.923004,947.998779 388.982361,948.387512 
	C386.934509,949.233582 384.410553,950.468201 382.621216,949.885498 
	C381.315887,949.460449 380.264923,946.421204 380.151886,944.486023 
	C379.667877,936.200195 379.080750,927.868164 379.475433,919.597961 
	C379.872620,911.275635 385.252136,903.573120 395.249237,907.914917 
	C397.990265,909.105347 401.434723,908.676147 405.035736,908.990234 
z"/>
<path fill="#999997" opacity="1.000000" stroke="none" 
	d="
M424.320312,1041.703857 
	C431.902222,1051.762817 438.990143,1061.774536 446.823090,1071.164673 
	C451.019836,1076.195557 456.490570,1080.165894 461.405029,1084.594360 
	C462.636749,1085.704224 464.111481,1086.587646 465.176880,1087.830322 
	C467.680542,1090.750854 466.776703,1093.682739 462.988708,1093.686646 
	C456.587555,1093.693115 450.179749,1092.895630 443.787476,1092.299561 
	C441.994690,1092.132446 440.167603,1090.918701 438.490723,1091.151978 
	C427.266479,1092.712524 418.643585,1086.232666 410.774384,1080.515503 
	C394.042999,1068.359741 382.837158,1051.816650 379.441315,1030.928345 
	C378.652985,1026.079102 379.289307,1020.987854 379.381531,1016.010010 
	C379.425598,1013.632385 379.730652,1011.259644 379.932892,1008.689087 
	C381.215668,1008.275818 383.102722,1008.029297 384.588806,1007.124390 
	C390.046051,1003.801392 395.047546,1005.036438 399.209930,1009.018616 
	C406.029053,1015.542664 412.720398,1022.146362 416.373138,1031.332886 
	C417.878326,1035.118286 421.485291,1038.067993 424.320312,1041.703857 
z"/>
<path fill="#999997" opacity="1.000000" stroke="none" 
	d="
M510.072052,1094.548340 
	C507.349579,1094.094482 505.037903,1093.614624 501.288422,1092.836182 
	C504.426819,1089.863647 506.230865,1087.732666 508.430420,1086.151855 
	C514.759399,1081.603271 521.511047,1077.607788 527.599121,1072.769043 
	C533.517944,1068.064941 538.836121,1062.602539 544.382080,1057.434448 
	C545.593628,1056.305542 546.553894,1054.898315 547.803650,1053.820801 
	C550.164429,1051.785645 552.238525,1051.992065 552.825256,1055.332520 
	C554.582214,1065.335571 556.185120,1075.368408 553.763428,1085.516724 
	C552.115479,1092.422119 545.912170,1096.686279 538.708679,1096.167847 
	C529.309265,1095.491211 519.892273,1095.059326 510.072052,1094.548340 
z"/>
</svg>