<svg version="1.1" id="Layer_1" xmlns="http://www.w3.org/2000/svg" xmlns:xlink="http://www.w3.org/1999/xlink" x="0px" y="0px"
	 width="100%" viewBox="0 0 1024 1024" enable-background="new 0 0 1024 1024" xml:space="preserve">
<path fill="#FEFEFE" opacity="1.000000" stroke="none" 
	d="
M1.000000,1024.000000 
	C1.000000,683.033936 1.000000,342.067932 1.000000,1.050945 
	C342.265381,1.050945 683.530762,1.050945 1024.898071,1.050945 
	C1024.898071,342.231323 1024.898071,683.462708 1024.898071,1025.000000 
	C684.302490,1025.000000 343.604889,1025.000000 2.373250,1024.760254 
	C1.559491,1024.347046 1.279745,1024.173584 1.000000,1024.000000 
M402.448334,521.954041 
	C404.953156,517.262573 407.457977,512.571106 410.330017,507.191803 
	C405.352234,507.191803 401.510498,506.295349 398.523834,507.506897 
	C396.531677,508.315063 395.884918,512.206787 394.392975,514.564697 
	C393.428497,516.088989 392.154266,517.481750 390.796997,518.682617 
	C382.289886,526.209473 359.095032,528.544434 349.096191,513.706238 
	C339.798065,499.907867 339.381561,484.977875 345.462006,469.867676 
	C346.965942,466.130371 349.528809,462.460663 352.498169,459.731903 
	C367.450775,445.990784 389.254089,451.215668 398.291779,470.491760 
	C401.858826,470.491760 405.446930,470.491760 409.647156,470.491760 
	C408.832520,467.920502 408.353333,465.659027 407.426514,463.598969 
	C398.288025,443.286224 367.395935,436.254547 348.398804,450.230408 
	C333.137939,461.457489 329.415924,477.518860 331.125793,495.088898 
	C332.727142,511.543945 340.019287,525.106323 356.485504,530.921936 
	C372.924652,536.728027 388.672821,535.252930 402.448334,521.954041 
M264.115204,523.726562 
	C259.876129,526.361328 255.590485,528.924988 251.414749,531.656616 
	C248.737396,533.408081 246.755035,533.253967 243.944031,531.275269 
	C233.664536,524.039490 225.945343,514.616211 218.979660,504.342041 
	C215.267746,498.867065 211.188141,493.582916 206.765472,488.670929 
	C204.243225,485.869629 200.459854,484.898987 196.664352,486.595093 
	C192.746719,488.345764 191.244217,491.602966 190.981720,495.800537 
	C189.608719,517.755981 206.105957,536.906555 228.175217,537.780701 
	C244.966904,538.445679 261.810028,538.156799 278.615967,537.729065 
	C281.002808,537.668335 285.162231,534.577209 285.331573,532.615112 
	C286.074249,524.007996 285.651642,515.300415 285.651642,506.468903 
	C278.397339,512.293640 271.545624,517.795166 264.115204,523.726562 
M198.737625,465.305847 
	C208.040817,453.396576 219.481918,444.196167 233.426056,438.282135 
	C234.811386,437.694550 237.301636,437.567383 238.233566,438.398621 
	C245.014328,444.446777 251.738037,450.591614 258.046722,457.124115 
	C261.948914,461.164764 264.807037,466.207153 268.664398,470.299744 
	C271.729492,473.551727 276.032867,474.224976 280.247192,472.457550 
	C284.461609,470.690063 285.814972,466.961914 285.855072,462.684601 
	C285.919128,455.853577 286.009613,449.019714 285.881561,442.190948 
	C285.791656,437.397217 282.408447,434.129822 277.584869,434.120667 
	C251.592102,434.071259 225.599197,434.072266 199.606415,434.110016 
	C194.179459,434.117889 191.654297,436.627594 191.558319,441.982330 
	C191.388107,451.477936 191.294952,460.975067 191.208710,470.471924 
	C191.199402,471.496429 191.448700,472.523315 191.703812,474.546478 
	C194.312927,471.104034 196.301315,468.480621 198.737625,465.305847 
M558.322327,513.372864 
	C560.249878,518.332947 562.406311,523.219910 564.023376,528.279236 
	C565.078491,531.580322 566.807434,532.838989 570.152954,532.261108 
	C573.524902,531.678711 577.369751,533.917358 579.405823,528.365356 
	C586.848755,508.069855 594.946167,488.015167 602.699463,467.832245 
	C605.536499,460.446991 608.101501,452.957275 610.900513,445.210968 
	C609.300171,445.137238 608.312683,445.070679 607.324280,445.049561 
	C599.576599,444.884003 599.625916,444.904724 596.955811,452.214539 
	C591.819824,466.274994 586.632874,480.316925 581.445435,494.358521 
	C578.430542,502.519318 575.373596,510.664551 572.265747,519.004272 
	C571.558350,518.439087 571.203674,518.300964 571.112854,518.062439 
	C561.889954,493.836761 552.687012,469.603516 543.453674,445.293823 
	C539.678040,445.293823 535.993164,445.293823 532.115967,445.293823 
	C540.854553,467.990356 549.451721,490.319550 558.322327,513.372864 
M651.030762,531.617432 
	C654.606750,528.891357 658.182739,526.165283 661.851562,523.368408 
	C661.986023,526.329041 662.117493,529.223389 662.248474,532.106079 
	C665.771301,532.106079 668.732300,532.106079 671.920654,532.106079 
	C671.920654,518.945679 672.105896,505.987366 671.867676,493.036896 
	C671.637329,480.513672 665.645020,472.586304 653.311340,470.725952 
	C646.515259,469.700867 638.991028,470.623138 632.305664,472.493011 
	C624.447388,474.690979 619.956482,481.004364 618.926941,489.606232 
	C622.591431,489.606232 626.018494,489.606232 629.362671,489.606232 
	C632.951843,479.820312 640.679626,476.104706 651.122498,478.960175 
	C657.880737,480.808136 661.832581,487.661530 660.516968,495.256714 
	C660.210388,495.356659 659.904968,495.539673 659.596985,495.544159 
	C654.435852,495.619904 649.255310,495.419098 644.118713,495.805939 
	C639.340820,496.165741 634.445007,496.600067 629.893555,497.971832 
	C621.407471,500.529480 617.244202,506.382294 617.165771,514.451111 
	C617.082397,523.030334 621.430176,529.365967 629.795349,532.234924 
	C636.614197,534.573486 643.523132,534.582764 651.030762,531.617432 
M819.956726,522.786072 
	C812.338623,526.893250 804.857178,526.637024 797.904419,521.490662 
	C792.256165,517.309875 789.613342,511.521179 789.811035,504.018127 
	C806.485535,504.018127 822.570190,504.018127 838.864258,504.018127 
	C839.377075,491.300568 836.848511,480.084076 825.079956,473.753052 
	C813.822083,467.696686 802.083618,468.063843 791.465881,475.459473 
	C780.642273,482.998474 777.658936,494.333649 779.119995,506.809418 
	C780.440613,518.086853 785.884644,526.936401 796.712891,531.660522 
	C813.339355,538.914124 831.604126,531.418274 836.883667,515.106567 
	C831.578003,514.839050 825.966736,513.228088 823.142151,520.018921 
	C822.741211,520.982788 821.460388,521.580750 819.956726,522.786072 
M766.295471,493.501678 
	C766.295471,486.207306 766.295471,478.912933 766.295471,471.630951 
	C762.462341,471.630951 759.225098,471.630951 755.740906,471.630951 
	C755.740906,481.085327 755.877869,490.229645 755.679077,499.366638 
	C755.589294,503.491241 755.340820,507.738739 754.275818,511.691040 
	C751.596069,521.635925 743.668640,526.484253 733.331543,525.075012 
	C725.246399,523.972839 720.722839,517.875305 720.587952,507.525024 
	C720.449036,496.864929 720.514709,486.202240 720.456604,475.540894 
	C720.448914,474.129852 720.239136,472.719940 720.140198,471.519714 
	C716.545471,471.519714 713.456055,471.519714 710.017212,471.519714 
	C710.017212,478.999512 709.899475,486.141052 710.049255,493.276978 
	C710.209656,500.921509 710.137146,508.619476 711.054321,516.186462 
	C712.061584,524.496765 717.093384,530.215088 725.215332,532.588623 
	C736.016846,535.745178 745.674561,533.781311 753.419678,525.135071 
	C754.111755,524.362427 754.259521,523.102356 754.660095,522.068665 
	C755.198730,522.503784 755.737427,522.938904 756.276123,523.374023 
	C756.276123,526.175415 756.276123,528.976807 756.276123,532.006104 
	C759.682861,532.006104 762.772888,532.006104 766.301758,532.006104 
	C766.301758,519.406677 766.301758,506.954285 766.295471,493.501678 
M433.277679,528.242798 
	C440.151367,533.949219 448.179626,532.092712 455.892029,532.366272 
	C455.892029,529.095276 455.892029,526.484741 455.892029,523.577148 
	C453.201782,523.577148 450.731354,523.700256 448.277008,523.554016 
	C441.017578,523.121216 438.932251,520.895142 438.885956,513.626465 
	C438.846741,507.468903 438.872650,501.310944 438.871246,495.153137 
	C438.870056,489.921326 438.871033,484.689484 438.871033,478.965881 
	C445.351990,478.965881 451.088837,478.965881 456.805908,478.965881 
	C456.805908,476.012817 456.805908,473.584229 456.805908,470.783081 
	C450.786560,470.783081 445.017120,470.783081 438.716034,470.783081 
	C438.716034,465.518799 438.716034,460.623199 438.716034,455.488861 
	C435.551666,455.488861 432.924103,455.488861 430.089264,455.488861 
	C429.391174,460.463440 428.681763,465.518524 427.924591,470.914062 
	C424.457428,470.914062 421.208679,470.914062 418.011597,470.914062 
	C418.011597,474.012665 418.011597,476.709015 418.011597,479.657928 
	C421.675201,479.657928 424.949707,479.657928 428.528534,479.657928 
	C428.528534,491.029755 428.489990,502.136047 428.545563,513.241943 
	C428.571594,518.445496 428.918549,523.607483 433.277679,528.242798 
M522.845764,455.515625 
	C522.845764,451.400238 522.845764,447.284851 522.845764,442.949707 
	C519.014282,442.949707 515.749756,442.949707 512.268555,442.949707 
	C512.268555,472.706665 512.268555,502.257172 512.268555,531.756409 
	C515.812256,531.756409 519.188110,531.756409 522.841431,531.756409 
	C522.841431,506.413330 522.841431,481.461487 522.845764,455.515625 
M479.108521,523.379639 
	C479.098175,515.389160 479.006836,507.397736 479.096619,499.408386 
	C479.228485,487.676575 485.793091,480.901947 497.552338,480.172943 
	C498.996277,480.083405 500.438721,479.970367 501.817139,479.872772 
	C501.817139,476.275848 501.817139,473.015533 501.817139,469.627594 
	C491.995514,469.350281 484.237518,472.609741 478.804810,482.600494 
	C478.452576,477.700378 478.220032,474.465454 477.990234,471.268738 
	C474.694611,471.268738 471.777252,471.268738 468.573883,471.268738 
	C468.573883,491.620300 468.573883,511.702698 468.573883,531.993591 
	C472.046814,531.993591 475.445068,531.993591 479.109863,531.993591 
	C479.109863,529.271362 479.109863,526.801636 479.108521,523.379639 
M685.996155,522.468872 
	C685.996155,525.593994 685.996155,528.719116 685.996155,531.843018 
	C689.731750,531.843018 692.928589,531.843018 696.218689,531.843018 
	C696.218689,502.034241 696.218689,472.604340 696.218689,443.203308 
	C692.707397,443.203308 689.478394,443.203308 685.992920,443.203308 
	C685.992920,469.528107 685.992920,495.503418 685.996155,522.468872 
z"/>
<path fill="#D8D8D9" opacity="1.000000" stroke="none" 
	d="
M1.000000,1024.500000 
	C1.279745,1024.173584 1.559491,1024.347046 1.919618,1024.760254 
	C1.666667,1025.000000 1.333333,1025.000000 1.000000,1024.500000 
z"/>
<path fill="#212B3C" opacity="1.000000" stroke="none" 
	d="
M402.224426,522.226990 
	C388.672821,535.252930 372.924652,536.728027 356.485504,530.921936 
	C340.019287,525.106323 332.727142,511.543945 331.125793,495.088898 
	C329.415924,477.518860 333.137939,461.457489 348.398804,450.230408 
	C367.395935,436.254547 398.288025,443.286224 407.426514,463.598969 
	C408.353333,465.659027 408.832520,467.920502 409.647156,470.491760 
	C405.446930,470.491760 401.858826,470.491760 398.291779,470.491760 
	C389.254089,451.215668 367.450775,445.990784 352.498169,459.731903 
	C349.528809,462.460663 346.965942,466.130371 345.462006,469.867676 
	C339.381561,484.977875 339.798065,499.907867 349.096191,513.706238 
	C359.095032,528.544434 382.289886,526.209473 390.796997,518.682617 
	C392.154266,517.481750 393.428497,516.088989 394.392975,514.564697 
	C395.884918,512.206787 396.531677,508.315063 398.523834,507.506897 
	C401.510498,506.295349 405.352234,507.191803 410.330017,507.191803 
	C407.457977,512.571106 404.953156,517.262573 402.224426,522.226990 
z"/>
<path fill="#1F293B" opacity="1.000000" stroke="none" 
	d="
M264.404541,523.511597 
	C271.545624,517.795166 278.397339,512.293640 285.651642,506.468903 
	C285.651642,515.300415 286.074249,524.007996 285.331573,532.615112 
	C285.162231,534.577209 281.002808,537.668335 278.615967,537.729065 
	C261.810028,538.156799 244.966904,538.445679 228.175217,537.780701 
	C206.105957,536.906555 189.608719,517.755981 190.981720,495.800537 
	C191.244217,491.602966 192.746719,488.345764 196.664352,486.595093 
	C200.459854,484.898987 204.243225,485.869629 206.765472,488.670929 
	C211.188141,493.582916 215.267746,498.867065 218.979660,504.342041 
	C225.945343,514.616211 233.664536,524.039490 243.944031,531.275269 
	C246.755035,533.253967 248.737396,533.408081 251.414749,531.656616 
	C255.590485,528.924988 259.876129,526.361328 264.404541,523.511597 
z"/>
<path fill="#212B3C" opacity="1.000000" stroke="none" 
	d="
M198.513657,465.581512 
	C196.301315,468.480621 194.312927,471.104034 191.703812,474.546478 
	C191.448700,472.523315 191.199402,471.496429 191.208710,470.471924 
	C191.294952,460.975067 191.388107,451.477936 191.558319,441.982330 
	C191.654297,436.627594 194.179459,434.117889 199.606415,434.110016 
	C225.599197,434.072266 251.592102,434.071259 277.584869,434.120667 
	C282.408447,434.129822 285.791656,437.397217 285.881561,442.190948 
	C286.009613,449.019714 285.919128,455.853577 285.855072,462.684601 
	C285.814972,466.961914 284.461609,470.690063 280.247192,472.457550 
	C276.032867,474.224976 271.729492,473.551727 268.664398,470.299744 
	C264.807037,466.207153 261.948914,461.164764 258.046722,457.124115 
	C251.738037,450.591614 245.014328,444.446777 238.233566,438.398621 
	C237.301636,437.567383 234.811386,437.694550 233.426056,438.282135 
	C219.481918,444.196167 208.040817,453.396576 198.513657,465.581512 
z"/>
<path fill="#20293B" opacity="1.000000" stroke="none" 
	d="
M558.185547,513.010803 
	C549.451721,490.319550 540.854553,467.990356 532.115967,445.293823 
	C535.993164,445.293823 539.678040,445.293823 543.453674,445.293823 
	C552.687012,469.603516 561.889954,493.836761 571.112854,518.062439 
	C571.203674,518.300964 571.558350,518.439087 572.265747,519.004272 
	C575.373596,510.664551 578.430542,502.519318 581.445435,494.358521 
	C586.632874,480.316925 591.819824,466.274994 596.955811,452.214539 
	C599.625916,444.904724 599.576599,444.884003 607.324280,445.049561 
	C608.312683,445.070679 609.300171,445.137238 610.900513,445.210968 
	C608.101501,452.957275 605.536499,460.446991 602.699463,467.832245 
	C594.946167,488.015167 586.848755,508.069855 579.405823,528.365356 
	C577.369751,533.917358 573.524902,531.678711 570.152954,532.261108 
	C566.807434,532.838989 565.078491,531.580322 564.023376,528.279236 
	C562.406311,523.219910 560.249878,518.332947 558.185547,513.010803 
z"/>
<path fill="#202A3B" opacity="1.000000" stroke="none" 
	d="
M650.680481,531.774292 
	C643.523132,534.582764 636.614197,534.573486 629.795349,532.234924 
	C621.430176,529.365967 617.082397,523.030334 617.165771,514.451111 
	C617.244202,506.382294 621.407471,500.529480 629.893555,497.971832 
	C634.445007,496.600067 639.340820,496.165741 644.118713,495.805939 
	C649.255310,495.419098 654.435852,495.619904 659.596985,495.544159 
	C659.904968,495.539673 660.210388,495.356659 660.515381,495.251892 
	C661.832581,487.661530 657.880737,480.808136 651.122498,478.960175 
	C640.679626,476.104706 632.951843,479.820312 629.362671,489.606232 
	C626.018494,489.606232 622.591431,489.606232 618.926941,489.606232 
	C619.956482,481.004364 624.447388,474.690979 632.305664,472.493011 
	C638.991028,470.623138 646.515259,469.700867 653.311340,470.725952 
	C665.645020,472.586304 671.637329,480.513672 671.867676,493.036896 
	C672.105896,505.987366 671.920654,518.945679 671.920654,532.106079 
	C668.732300,532.106079 665.771301,532.106079 662.248474,532.106079 
	C662.117493,529.223389 661.986023,526.329041 661.851562,523.368408 
	C658.182739,526.165283 654.606750,528.891357 650.680481,531.774292 
M628.003540,515.301086 
	C628.465942,520.731812 631.833496,523.549988 636.761414,524.799255 
	C650.360474,528.246765 662.081909,517.961548 660.732117,503.724182 
	C653.483643,503.724182 646.171509,503.178223 638.980225,503.876801 
	C631.699280,504.584106 628.753662,508.066193 628.003540,515.301086 
z"/>
<path fill="#1F293A" opacity="1.000000" stroke="none" 
	d="
M820.271729,522.567078 
	C821.460388,521.580750 822.741211,520.982788 823.142151,520.018921 
	C825.966736,513.228088 831.578003,514.839050 836.883667,515.106567 
	C831.604126,531.418274 813.339355,538.914124 796.712891,531.660522 
	C785.884644,526.936401 780.440613,518.086853 779.119995,506.809418 
	C777.658936,494.333649 780.642273,482.998474 791.465881,475.459473 
	C802.083618,468.063843 813.822083,467.696686 825.079956,473.753052 
	C836.848511,480.084076 839.377075,491.300568 838.864258,504.018127 
	C822.570190,504.018127 806.485535,504.018127 789.811035,504.018127 
	C789.613342,511.521179 792.256165,517.309875 797.904419,521.490662 
	C804.857178,526.637024 812.338623,526.893250 820.271729,522.567078 
M800.182800,480.392700 
	C793.835693,483.934631 790.375305,489.267822 789.525208,496.625519 
	C802.829834,496.625519 815.528564,496.625519 830.072449,496.625519 
	C827.453552,491.480377 826.152344,486.592224 823.087830,483.393097 
	C816.882874,476.915436 808.933289,476.965729 800.182800,480.392700 
z"/>
<path fill="#202A3B" opacity="1.000000" stroke="none" 
	d="
M766.298584,494.001770 
	C766.301758,506.954285 766.301758,519.406677 766.301758,532.006104 
	C762.772888,532.006104 759.682861,532.006104 756.276123,532.006104 
	C756.276123,528.976807 756.276123,526.175415 756.276123,523.374023 
	C755.737427,522.938904 755.198730,522.503784 754.660095,522.068665 
	C754.259521,523.102356 754.111755,524.362427 753.419678,525.135071 
	C745.674561,533.781311 736.016846,535.745178 725.215332,532.588623 
	C717.093384,530.215088 712.061584,524.496765 711.054321,516.186462 
	C710.137146,508.619476 710.209656,500.921509 710.049255,493.276978 
	C709.899475,486.141052 710.017212,478.999512 710.017212,471.519714 
	C713.456055,471.519714 716.545471,471.519714 720.140198,471.519714 
	C720.239136,472.719940 720.448914,474.129852 720.456604,475.540894 
	C720.514709,486.202240 720.449036,496.864929 720.587952,507.525024 
	C720.722839,517.875305 725.246399,523.972839 733.331543,525.075012 
	C743.668640,526.484253 751.596069,521.635925 754.275818,511.691040 
	C755.340820,507.738739 755.589294,503.491241 755.679077,499.366638 
	C755.877869,490.229645 755.740906,481.085327 755.740906,471.630951 
	C759.225098,471.630951 762.462341,471.630951 766.295471,471.630951 
	C766.295471,478.912933 766.295471,486.207306 766.298584,494.001770 
z"/>
<path fill="#1E2839" opacity="1.000000" stroke="none" 
	d="
M433.019653,527.983337 
	C428.918549,523.607483 428.571594,518.445496 428.545563,513.241943 
	C428.489990,502.136047 428.528534,491.029755 428.528534,479.657928 
	C424.949707,479.657928 421.675201,479.657928 418.011597,479.657928 
	C418.011597,476.709015 418.011597,474.012665 418.011597,470.914062 
	C421.208679,470.914062 424.457428,470.914062 427.924591,470.914062 
	C428.681763,465.518524 429.391174,460.463440 430.089264,455.488861 
	C432.924103,455.488861 435.551666,455.488861 438.716034,455.488861 
	C438.716034,460.623199 438.716034,465.518799 438.716034,470.783081 
	C445.017120,470.783081 450.786560,470.783081 456.805908,470.783081 
	C456.805908,473.584229 456.805908,476.012817 456.805908,478.965881 
	C451.088837,478.965881 445.351990,478.965881 438.871033,478.965881 
	C438.871033,484.689484 438.870056,489.921326 438.871246,495.153137 
	C438.872650,501.310944 438.846741,507.468903 438.885956,513.626465 
	C438.932251,520.895142 441.017578,523.121216 448.277008,523.554016 
	C450.731354,523.700256 453.201782,523.577148 455.892029,523.577148 
	C455.892029,526.484741 455.892029,529.095276 455.892029,532.366272 
	C448.179626,532.092712 440.151367,533.949219 433.019653,527.983337 
z"/>
<path fill="#232C3B" opacity="1.000000" stroke="none" 
	d="
M522.843628,456.012634 
	C522.841431,481.461487 522.841431,506.413330 522.841431,531.756409 
	C519.188110,531.756409 515.812256,531.756409 512.268555,531.756409 
	C512.268555,502.257172 512.268555,472.706665 512.268555,442.949707 
	C515.749756,442.949707 519.014282,442.949707 522.845764,442.949707 
	C522.845764,447.284851 522.845764,451.400238 522.843628,456.012634 
z"/>
<path fill="#222C3D" opacity="1.000000" stroke="none" 
	d="
M479.109192,523.855774 
	C479.109863,526.801636 479.109863,529.271362 479.109863,531.993591 
	C475.445068,531.993591 472.046814,531.993591 468.573883,531.993591 
	C468.573883,511.702698 468.573883,491.620300 468.573883,471.268738 
	C471.777252,471.268738 474.694611,471.268738 477.990234,471.268738 
	C478.220032,474.465454 478.452576,477.700378 478.804810,482.600494 
	C484.237518,472.609741 491.995514,469.350281 501.817139,469.627594 
	C501.817139,473.015533 501.817139,476.275848 501.817139,479.872772 
	C500.438721,479.970367 498.996277,480.083405 497.552338,480.172943 
	C485.793091,480.901947 479.228485,487.676575 479.096619,499.408386 
	C479.006836,507.397736 479.098175,515.389160 479.109192,523.855774 
z"/>
<path fill="#151F2F" opacity="1.000000" stroke="none" 
	d="
M685.994507,521.973816 
	C685.992920,495.503418 685.992920,469.528107 685.992920,443.203308 
	C689.478394,443.203308 692.707397,443.203308 696.218689,443.203308 
	C696.218689,472.604340 696.218689,502.034241 696.218689,531.843018 
	C692.928589,531.843018 689.731750,531.843018 685.996155,531.843018 
	C685.996155,528.719116 685.996155,525.593994 685.994507,521.973816 
z"/>
<path fill="#F7F7F8" opacity="1.000000" stroke="none" 
	d="
M627.999817,514.896545 
	C628.753662,508.066193 631.699280,504.584106 638.980225,503.876801 
	C646.171509,503.178223 653.483643,503.724182 660.732117,503.724182 
	C662.081909,517.961548 650.360474,528.246765 636.761414,524.799255 
	C631.833496,523.549988 628.465942,520.731812 627.999817,514.896545 
z"/>
<path fill="#F7F8F8" opacity="1.000000" stroke="none" 
	d="
M800.537781,480.241028 
	C808.933289,476.965729 816.882874,476.915436 823.087830,483.393097 
	C826.152344,486.592224 827.453552,491.480377 830.072449,496.625519 
	C815.528564,496.625519 802.829834,496.625519 789.525208,496.625519 
	C790.375305,489.267822 793.835693,483.934631 800.537781,480.241028 
z"/>
</svg>